<?xml version="1.0" encoding="UTF-8" standalone="no"?>
<!DOCTYPE svg PUBLIC "-//W3C//DTD SVG 1.1//EN"
        "http://www.w3.org/Graphics/SVG/1.1/DTD/svg11.dtd">
<svg width="100%" height="100%" viewBox="0 0 1000 1000" version="1.1" xmlns="http://www.w3.org/2000/svg"
     xml:space="preserve"
     style="fill-rule:evenodd;clip-rule:evenodd;stroke-linejoin:round;stroke-miterlimit:2;">
    <rect id="Artboard1" x="0" y="0" width="1000" height="1000"/>
    <g>
        <g>
            <g>
                <path d="M150,700l0,-100l100,0l0,-100l100,0l0,-200l-100,0l0,100l-100,0l0,-100l-100,0l0,400l100,0Z" style="fill:#fff;"/>
                <rect x="250" y="600" width="100" height="100" style="fill:#fff;"/>
            </g>
            <g>
                <path d="M750,600l0,-200l-100,0l0,200l-100,0l0,100l300,0l0,-100l-100,0Z" style="fill:#fff;"/>
                <rect x="850" y="300" width="100" height="300" style="fill:#fff;"/>
                <rect x="450" y="300" width="100" height="300" style="fill:#fff;"/>
            </g>
        </g>
    </g>
</svg>