<?xml version="1.0" standalone="no"?>
<!DOCTYPE svg PUBLIC "-//W3C//DTD SVG 20010904//EN"
 "http://www.w3.org/TR/2001/REC-SVG-20010904/DTD/svg10.dtd">
<svg version="1.0" xmlns="http://www.w3.org/2000/svg"
 width="500.000000pt" height="500.000000pt" viewBox="0 0 500.000000 500.000000"
 preserveAspectRatio="xMidYMid meet">
<metadata>
Created by potrace 1.14, written by Peter Selinger 2001-2017
</metadata>
<g transform="translate(0.000000,500.000000) scale(0.100000,-0.100000)"
fill="#000000" stroke="none">
<path d="M3965 4303 c-96 -17 -210 -55 -284 -95 -52 -28 -209 -129 -241 -155
-102 -81 -581 -433 -678 -497 -178 -118 -440 -251 -532 -271 -8 -2 -44 -10
-80 -19 -36 -8 -87 -18 -115 -21 -27 -3 -63 -8 -80 -10 -16 -2 -61 -6 -100
-10 -95 -8 -181 -15 -235 -20 -25 -3 -70 -7 -100 -10 -327 -30 -650 -134 -792
-257 -14 -13 -38 -32 -53 -43 l-27 -19 391 -386 391 -386 -170 -168 c-93 -92
-170 -171 -170 -174 0 -4 151 -158 335 -342 l335 -335 172 172 173 173 386
-391 386 -391 59 79 c93 123 167 289 199 443 2 8 8 35 14 60 11 51 15 75 30
180 18 125 24 186 36 355 4 50 8 101 10 115 2 14 7 54 10 90 17 177 66 338
154 511 97 191 187 327 481 719 193 259 250 336 265 361 6 10 30 50 53 91 106
178 159 464 106 579 -25 56 -74 80 -173 83 -42 2 -112 -3 -156 -11z"/>
</g>
</svg>
